<svg width="24" height="24" viewBox="0 0 24 24" fill="none" xmlns="http://www.w3.org/2000/svg">
    <g stroke="currentColor" fill="none" stroke-width="1.5" stroke-linecap="round" stroke-linejoin="round">
        <path fill-rule="evenodd" clip-rule="evenodd"
            d="M5.984 21.5H4C3.448 21.5 3 21.052 3 20.5V14.5C3 13.948 3.448 13.5 4 13.5H5.984C6.536 13.5 6.984 13.948 6.984 14.5V20.5C6.984 21.052 6.536 21.5 5.984 21.5Z" />
        <path
            d="M12.9604 17.4991H15.2844C15.7154 17.4991 16.1344 17.3591 16.4794 17.0991L18.8854 15.2871C19.4864 14.8351 20.3264 14.8951 20.8574 15.4281V15.4281C21.4464 16.0201 21.4464 16.9791 20.8574 17.5701L18.7934 19.6431C18.2374 20.2011 17.5294 20.5821 16.7574 20.7371L13.8384 21.3231C13.2604 21.4391 12.6634 21.4251 12.0904 21.2811L9.45138 20.6191C9.13638 20.5391 8.81138 20.4991 8.48538 20.4991H6.98438" />
        <path
            d="M12.9604 17.5H14.4394C15.2724 17.5 15.9484 16.822 15.9484 15.985V15.682C15.9484 14.987 15.4774 14.381 14.8054 14.213L12.5224 13.64C12.1514 13.547 11.7704 13.5 11.3884 13.5V13.5C10.4654 13.5 9.56238 13.774 8.79438 14.289L6.98438 15.5" />
        <path fill-rule="evenodd" clip-rule="evenodd"
            d="M15.2864 4.16068L14.9374 4.53368L14.5874 4.16068C13.8204 3.34268 12.5484 3.27568 11.7004 4.00768V4.00768C10.8334 4.75568 10.7304 6.05268 11.4434 6.95068C12.4634 8.23468 13.6324 9.50268 14.9374 10.4997C16.2754 9.47768 17.4694 8.17168 18.5074 6.85468C19.1814 5.99968 19.0424 4.75868 18.2204 4.04768L18.1824 4.01468C17.3264 3.27568 16.0534 3.34268 15.2864 4.16068V4.16068Z" />
    </g>
</svg>