<svg width="24" height="24" viewBox="0 0 24 24" xmlns="http://www.w3.org/2000/svg">
<g stroke="currentColor" fill="none" stroke-width="1.5" stroke-linecap="round" stroke-linejoin="round">
<path d="M7.62817 13.8668L11.2857 11.6368V6.98389" />
<path d="M10.9996 20.0035C6.15651 20.0052 2.1797 16.1757 1.99882 11.336C1.81795 6.49632 5.49782 2.3806 10.3275 2.02085C15.1572 1.66111 19.4062 5.18625 19.9443 9.99931" />
<path fill-rule="evenodd" clip-rule="evenodd" d="M20.0033 21.0038H16.0017C14.8966 21.0038 14.0008 20.108 14.0008 19.003V15.0013C14.0008 13.8963 14.8966 13.0005 16.0017 13.0005H20.0033C21.1084 13.0005 22.0042 13.8963 22.0042 15.0013V19.003C22.0042 20.108 21.1084 21.0038 20.0033 21.0038Z" />
<path d="M19.0029 16.002L17.0021 18.0028" />
<path d="M17.0021 16.002L19.0029 18.0028" />
</g>
</svg>
