<svg width="24" height="24" viewBox="0 0 24 24" xmlns="http://www.w3.org/2000/svg">
<g fill="none" stroke="currentColor" stroke-width="1.5" stroke-linecap="round" stroke-linejoin="round">
<path fill-rule="evenodd" clip-rule="evenodd" d="M20.0497 14.2929C19.6592 13.9024 19.0261 13.9024 18.6356 14.2929L15.7929 17.1355C15.6054 17.3231 15.5 17.5775 15.5 17.8427V20H17.6573C17.9225 20 18.1769 19.8946 18.3644 19.7071L21.2071 16.8644C21.3946 16.6768 21.5 16.4225 21.5 16.1573C21.5 15.8921 21.3946 15.6377 21.2071 15.4502L20.0497 14.2929Z" />
<path d="M12 21C7.15538 21.0226 3.16253 17.2055 2.96728 12.3648C2.77202 7.52403 6.44446 3.39769 11.2752 3.03006C16.1059 2.66242 20.3604 6.18549 20.9 11" />
<path d="M8.4425 12.3391L10.6104 14.507L10.5964 14.493L15.4874 9.60199" />
</g>
</svg>
