<svg width="24" height="24" viewBox="0 0 24 24" xmlns="http://www.w3.org/2000/svg">
<g stroke="currentColor" fill="none" stroke-width="1.5" stroke-linecap="round" stroke-linejoin="round">
<path d="M20 13.7582V6.0332" />
<path d="M13.028 18.0002H5C3.343 18.0002 2 16.6572 2 15.0002V6.0332" />
<path fill-rule="evenodd" clip-rule="evenodd" d="M9.136 11.018L3.085 7.831C2.418 7.479 2 6.787 2 6.033V6C2 4.895 2.895 4 4 4H17.967C19.09 4 20 4.91 20 6.033V6.053C20 6.795 19.589 7.477 18.932 7.823L12.864 11.019C11.697 11.633 10.303 11.633 9.136 11.018Z" />
<path d="M19.25 16.6523L17.062 18.8403L15.75 17.5273" />
<path d="M20.682 14.3223C22.439 16.0842 22.439 18.9423 20.683 20.7053C18.963 22.4313 16.038 22.4313 14.317 20.7053C12.56 18.9423 12.561 16.0842 14.318 14.3223C16.075 12.5592 18.925 12.5592 20.682 14.3223" />
</g>
</svg>
