<svg width="24" height="24" viewBox="0 0 24 24" fill="none" xmlns="http://www.w3.org/2000/svg">
<g stroke="currentColor" fill="none" stroke-width="1.5" stroke-linecap="round" stroke-linejoin="round">
<path d="M18.0075 10.0041V7.83123C18.0075 7.30101 17.7964 6.7918 17.4213 6.41664L14.5921 3.58746C14.2169 3.21231 13.7077 3.00122 13.1775 3.00122H6.00251C4.89705 3.00122 4.00168 3.89659 4.00168 5.00205V19.0079C4.00168 20.1133 4.89705 21.0087 6.00251 21.0087H10.0042"/>
<path d="M18.0075 8.0033H14.0058C13.4536 8.0033 13.0054 7.55512 13.0054 7.00289V3.00122" />
<path d="M16.5069 22.0091C14.0208 22.0091 12.005 19.9933 12.005 17.5072C12.005 15.0212 14.0208 13.0054 16.5069 13.0054C18.9939 13.0054 21.0088 15.0212 21.0088 17.5072C21.0088 19.9933 18.9939 22.0091 16.5069 22.0091"/>
<path d="M16.5069 15.7114V19.3019"/>
<path d="M18.3026 17.5073H14.7121"/>
</g>
</svg>

