<svg width="24" height="24" viewBox="0 0 24 24" xmlns="http://www.w3.org/2000/svg">
<g stroke="currentColor" fill="none">
<path d="M13.57 17.5H16.25" stroke-width="1.5" stroke-linecap="round" stroke-linejoin="round"/>
<path d="M14.91 17.5V12.5L13.45 13.82" stroke-width="1.5" stroke-linecap="round" stroke-linejoin="round"/>
<path d="M21 9H3" stroke-width="1.5" stroke-linecap="round" stroke-linejoin="round"/>
<path d="M8 2.87988V5.11988" stroke-width="1.5" stroke-linecap="round" stroke-linejoin="round"/>
<path d="M16 2.87988V5.11988" stroke-width="1.5" stroke-linecap="round" stroke-linejoin="round"/>
<path fill-rule="evenodd" clip-rule="evenodd" d="M18 21H6C4.343 21 3 19.657 3 18V7C3 5.343 4.343 4 6 4H18C19.657 4 21 5.343 21 7V18C21 19.657 19.657 21 18 21Z" stroke-width="1.5" stroke-linecap="round" stroke-linejoin="round"/>
<path d="M8.25 13.46C8.409 12.91 8.895 12.5 9.496 12.5C10.224 12.5 10.815 13.09 10.815 13.819C10.815 14.471 10.286 15 9.634 15C10.286 15 10.815 15.529 10.815 16.181C10.815 16.909 10.225 17.5 9.496 17.5C8.895 17.5 8.409 17.09 8.25 16.54" stroke-width="1.5" stroke-linecap="round" stroke-linejoin="round"/>
</g>
</svg>