<svg width="24" height="24" viewBox="0 0 24 24" xmlns="http://www.w3.org/2000/svg">
<g stroke="currentColor" fill="none" stroke-width="1.5" stroke-linecap="round" stroke-linejoin="round">
<path fill-rule="evenodd" clip-rule="evenodd" d="M4 3H9C9.552 3 10 3.448 10 4V9C10 9.552 9.552 10 9 10H4C3.448 10 3 9.552 3 9V4C3 3.448 3.448 3 4 3Z" />
<path fill-rule="evenodd" clip-rule="evenodd" d="M15 3H20C20.552 3 21 3.448 21 4V9C21 9.552 20.552 10 20 10H15C14.448 10 14 9.552 14 9V4C14 3.448 14.448 3 15 3Z" />
<path d="M17 16L19 14L21 16" />
<path d="M19 14V20C19 20.552 18.552 21 18 21H14" />
<path fill-rule="evenodd" clip-rule="evenodd" d="M4 14H9C9.552 14 10 14.448 10 15V20C10 20.552 9.552 21 9 21H4C3.448 21 3 20.552 3 20V15C3 14.448 3.448 14 4 14Z" />
</g>
</svg>

