<svg width="24" height="24" viewBox="0 0 24 24" xmlns="http://www.w3.org/2000/svg">
<g stroke="currentColor" fill="none" stroke-width="1.5" stroke-linecap="round" stroke-linejoin="round">
<path d="M14.9012 21.0036H10.9995C6.57943 21.0036 2.99622 17.4204 2.99622 13.0003V10.9994C2.99622 6.57931 6.57943 2.99609 10.9995 2.99609H13.0004C15.123 2.99609 17.1587 3.8393 18.6596 5.34022C20.1605 6.84113 21.0037 8.87681 21.0037 10.9994V13.5005C21.0037 15.158 19.66 16.5017 18.0025 16.5017H17.9024C16.2449 16.5017 14.9012 15.158 14.9012 13.5005V11.7747" />
<path d="M9.27391 8.45445L9.57404 8.15432C9.99587 7.73393 10.5672 7.49793 11.1627 7.49805H12.6503C13.8935 7.49805 14.9013 8.50583 14.9013 9.74898V14.2509C14.9013 15.494 13.8935 16.5018 12.6503 16.5018H10.9616C9.65681 16.5012 8.59918 15.4436 8.59863 14.1388V14.1388C8.59918 12.834 9.65681 11.7764 10.9616 11.7758H14.9013" />
</g>
</svg>


