<svg width="24" height="24" viewBox="0 0 24 24" xmlns="http://www.w3.org/2000/svg">
<g stroke="currentColor" fill="none">
<path d="M20.7925 9.52368C21.5825 10.3137 21.5825 11.5946 20.7925 12.3846C20.0025 13.1747 18.7216 13.1747 17.9315 12.3846C17.1415 11.5946 17.1415 10.3137 17.9315 9.52368C18.7216 8.73364 20.0025 8.73364 20.7925 9.52368" stroke-width="1.5" stroke-linecap="round" stroke-linejoin="round"/>
<path d="M14.2026 5.91236C15.4191 7.12884 15.4191 9.10115 14.2026 10.3176C12.9861 11.5341 11.0138 11.5341 9.79731 10.3176C8.58083 9.10116 8.58083 7.12885 9.79731 5.91236C11.0138 4.69588 12.9861 4.69588 14.2026 5.91236" stroke-width="1.5" stroke-linecap="round" stroke-linejoin="round"/>
<path d="M6.06849 9.52368C6.85853 10.3137 6.85853 11.5946 6.06849 12.3846C5.27846 13.1747 3.99757 13.1747 3.20754 12.3846C2.41751 11.5946 2.41751 10.3137 3.20754 9.52368C3.99758 8.73364 5.27846 8.73364 6.06849 9.52368" stroke-width="1.5" stroke-linecap="round" stroke-linejoin="round"/>
<path d="M23 18.9998V17.9038C23 16.5228 21.881 15.4038 20.5 15.4038H19.699" stroke-width="1.5" stroke-linecap="round" stroke-linejoin="round"/>
<path d="M1 18.9998V17.9038C1 16.5228 2.119 15.4038 3.5 15.4038H4.301" stroke-width="1.5" stroke-linecap="round" stroke-linejoin="round"/>
<path d="M17.339 18.9999V17.3989C17.339 15.4659 15.772 13.8989 13.839 13.8989H10.16C8.227 13.8989 6.66 15.4659 6.66 17.3989V18.9999" stroke-width="1.5" stroke-linecap="round" stroke-linejoin="round"/>
</g>
</svg>


