<svg width="24" height="24" viewBox="0 0 24 24" xmlns="http://www.w3.org/2000/svg">
<g stroke="currentColor" fill="none">
<path fill-rule="evenodd" clip-rule="evenodd" d="M18.7021 18.9626L19.5607 18.104C20.1464 17.5182 20.1464 16.5685 19.5607 15.9827L17.6433 14.0653C17.2682 13.6903 16.7595 13.4796 16.2291 13.4796C15.6987 13.4796 15.19 13.6903 14.8149 14.0653L13.3118 15.5684C11.0542 14.7265 9.27348 12.9458 8.43155 10.6882L9.93462 9.18509C10.7157 8.40405 10.7157 7.13773 9.93462 6.35668L8.0173 4.43934C7.73599 4.15804 7.35446 4 6.95663 4C6.55881 4 6.17728 4.15804 5.89597 4.43934L5.03742 5.29788C4.37392 5.96137 4.00082 6.86103 4 7.79934V7.79934C3.99719 11.036 5.28171 14.1409 7.57037 16.4296C9.85903 18.7183 12.9639 20.0028 16.2006 20V20C17.1389 19.9992 18.0386 19.6261 18.7021 18.9626V18.9626Z" stroke-width="1.5" stroke-linecap="round" stroke-linejoin="round"/>
</g>
</svg>