<svg height="24" viewBox="0 0 24 24" width="24" xmlns="http://www.w3.org/2000/svg">
  <g stroke="currentColor" fill="none" stroke-linecap="round" stroke-linejoin="round" stroke-width="1.5">
    <path d="m16 2v4" />
    <path d="m8 2v4" />
    <path d="m3 9h18" />
    <path clip-rule="evenodd"
      d="m19 4h-14c-1.105 0-2 .895-2 2v13c0 1.105.895 2 2 2h14c1.105 0 2-.895 2-2v-13c0-1.105-.895-2-2-2z"
      fill-rule="evenodd" />
    <path d="m7.01316 12.729c-.138 0-.25.112-.249.25 0 .138.112.25.25.25s.25-.112.25-.25-.112-.25-.251-.25" />
    <path d="m12.0132 12.729c-.138 0-.25.112-.249.25 0 .138.112.25.25.25s.25-.112.25-.25-.112-.25-.251-.25" />
    <path d="m17.0132 12.729c-.138 0-.25.112-.249.25 0 .138.112.25.25.25s.25-.112.25-.25-.112-.25-.251-.25" />
    <path d="m7.01316 16.729c-.138 0-.25.112-.249.25 0 .138.112.25.25.25s.25-.112.25-.25-.112-.25-.251-.25" />
    <path d="m12.0132 16.729c-.138 0-.25.112-.249.25 0 .138.112.25.25.25s.25-.112.25-.25-.112-.25-.251-.25" />
  </g>
</svg>
