<svg width="24" height="24" viewBox="0 0 24 24" xmlns="http://www.w3.org/2000/svg">
<g stroke="currentColor" fill="none" stroke-width="1.5" stroke-linecap="round" stroke-linejoin="round">
<path d="M16.9188 15.936L17.9761 15.6941C19.7476 15.2887 21.0038 13.7126 21.0038 11.8953V11.8953C21.0038 11.1271 20.6986 10.3903 20.1554 9.84713C19.6122 9.30392 18.8754 8.99875 18.1072 8.99875H15.5015" />
<path fill-rule="evenodd" clip-rule="evenodd" d="M3.99667 8.99875H16.0017C16.5542 8.99875 17.0021 9.44665 17.0021 9.99917V15.0012C17.0021 18.3163 14.3147 21.0037 10.9996 21.0037H8.99875C5.68366 21.0037 2.99625 18.3163 2.99625 15.0012V9.99917C2.99625 9.44665 3.44416 8.99875 3.99667 8.99875Z" />
<path d="M13.5006 5.9975C13.1857 5.76133 13.0004 5.39069 13.0004 4.99708C13.0004 4.60347 13.1857 4.23283 13.5006 3.99667C13.8155 3.7605 14.0008 3.38986 14.0008 2.99625C14.0008 2.60264 13.8155 2.232 13.5006 1.99583" />
<path d="M9.99917 5.9975C9.68428 5.76133 9.49896 5.39069 9.49896 4.99708C9.49896 4.60347 9.68428 4.23283 9.99917 3.99667C10.3141 3.7605 10.4994 3.38986 10.4994 2.99625C10.4994 2.60264 10.3141 2.232 9.99917 1.99583" />
<path d="M6.49771 5.9975C6.18283 5.76133 5.99751 5.39069 5.99751 4.99708C5.99751 4.60347 6.18283 4.23283 6.49771 3.99667C6.8126 3.7605 6.99792 3.38986 6.99792 2.99625C6.99792 2.60264 6.8126 2.232 6.49771 1.99583" />
<path d="M8.99876 8.99875V12" />
<rect x="6.99792" y="12" width="4.00167" height="4.00167" rx="1" />
</g>
</svg>
