<svg width="24" height="24" viewBox="0 0 24 24" xmlns="http://www.w3.org/2000/svg">
    <g fill="none" stroke="currentColor" stroke-width="1.5" stroke-linecap="round" stroke-linejoin="round">
        <path
            d="M17.0021 21.0037C14.2395 21.0037 12 18.7642 12 16.0016C12.0413 13.2563 14.2568 11.0408 17.0021 10.9995C19.7647 10.9995 22.0042 13.239 22.0042 16.0016C22.0042 18.7642 19.7647 21.0037 17.0021 21.0037" />
        <path d="M18.4167 14.5874L15.5875 17.4166" />
        <path d="M18.4167 17.4166L15.5875 14.5874" />
        <path
            d="M3.19033 3.80271C3.08314 3.80271 2.99625 3.8896 2.99625 3.99679C2.99625 4.10398 3.08314 4.19087 3.19033 4.19087C3.29752 4.19087 3.38441 4.10398 3.38441 3.99679C3.38441 3.8896 3.29752 3.80271 3.19033 3.80271" />
        <path d="M6.30362 3.99679H20.0033" />
        <path
            d="M3.19033 7.80417C3.08314 7.80417 2.99625 7.89107 2.99625 7.99826C2.99625 8.10544 3.08314 8.19234 3.19033 8.19234C3.29752 8.19234 3.38441 8.10544 3.38441 7.99826C3.38441 7.89107 3.29752 7.80417 3.19033 7.80417" />
        <path d="M6.30362 7.99826H20.0033" />
        <path
            d="M3.19033 11.8061C3.08314 11.8061 2.99625 11.893 2.99625 12.0002C2.99625 12.1074 3.08314 12.1943 3.19033 12.1943C3.29752 12.1943 3.38441 12.1074 3.38441 12.0002C3.38441 11.9487 3.36397 11.8994 3.32757 11.863C3.29117 11.8266 3.24181 11.8061 3.19033 11.8061" />
        <path d="M6.30362 12.0002H8.35047" />
    </g>
</svg>