<svg width="24" height="24" viewBox="0 0 24 24" xmlns="http://www.w3.org/2000/svg">
<g stroke="currentColor" fill="none" stroke-width="1.5" stroke-linecap="round" stroke-linejoin="round">
<path d="M7.5 3V6" />
<path d="M16.5 3V6" />
<rect x="3" y="4.5" width="18" height="16.5" rx="3" />
<path d="M10.0012 14.4512C9.98825 14.4512 9.97589 14.4564 9.96685 14.4656C9.95782 14.4748 9.95288 14.4873 9.95315 14.5002C9.95315 14.5201 9.9652 14.5381 9.98365 14.5456C10.0021 14.5531 10.0232 14.5487 10.0372 14.5345C10.0511 14.5203 10.0551 14.499 10.0472 14.4808C10.0393 14.4625 10.0211 14.4508 10.0012 14.4512" />
<path d="M6.50023 14.4527C6.48697 14.4524 6.47417 14.4576 6.46489 14.467C6.4556 14.4765 6.45065 14.4894 6.45121 14.5027C6.45121 14.5226 6.46327 14.5405 6.48171 14.548C6.50015 14.5556 6.52131 14.5512 6.53525 14.537C6.54918 14.5227 6.55313 14.5015 6.54522 14.4832C6.53732 14.4649 6.51914 14.4532 6.49923 14.4537" />
<path d="M10.0012 17.4551C9.98825 17.4551 9.97589 17.4603 9.96685 17.4695C9.95782 17.4787 9.95288 17.4912 9.95315 17.5041C9.95315 17.524 9.9652 17.542 9.98365 17.5495C10.0021 17.557 10.0232 17.5526 10.0372 17.5384C10.0511 17.5242 10.0551 17.5029 10.0472 17.4847C10.0393 17.4664 10.0211 17.4547 10.0012 17.4551" />
<path d="M13.4992 17.4551C13.4863 17.4551 13.4739 17.4603 13.4649 17.4695C13.4559 17.4787 13.4509 17.4912 13.4512 17.5041C13.4512 17.524 13.4633 17.542 13.4817 17.5495C13.5001 17.557 13.5213 17.5526 13.5352 17.5384C13.5492 17.5242 13.5531 17.5029 13.5452 17.4847C13.5373 17.4664 13.5191 17.4547 13.4992 17.4551" />
<path d="M6.50021 17.4551C6.48713 17.4548 6.4745 17.4599 6.46525 17.4692C6.45599 17.4784 6.45092 17.491 6.45119 17.5041C6.4512 17.524 6.46325 17.542 6.48169 17.5495C6.50013 17.557 6.52129 17.5526 6.53523 17.5384C6.54917 17.5242 6.55311 17.5029 6.54521 17.4847C6.5373 17.4664 6.51913 17.4547 6.49921 17.4551" />
<path d="M17.0041 11.4512C16.9912 11.4512 16.9788 11.4564 16.9698 11.4656C16.9607 11.4748 16.9558 11.4873 16.9561 11.5002C16.9561 11.5201 16.9681 11.5381 16.9866 11.5456C17.005 11.5531 17.0262 11.5487 17.0401 11.5345C17.0541 11.5203 17.058 11.499 17.0501 11.4808C17.0422 11.4625 17.024 11.4508 17.0041 11.4512" />
<path d="M13.5041 11.4512C13.4843 11.4512 13.4664 11.4631 13.4588 11.4814C13.4512 11.4998 13.4554 11.5209 13.4695 11.5349C13.4835 11.5489 13.5046 11.5531 13.5229 11.5455C13.5412 11.5379 13.5531 11.52 13.5531 11.5002C13.5531 11.4731 13.5312 11.4512 13.5041 11.4512" />
<path d="M10.0002 11.4512C9.98728 11.4512 9.97491 11.4564 9.96588 11.4656C9.95684 11.4748 9.9519 11.4873 9.95217 11.5002C9.95217 11.5201 9.96423 11.5381 9.98267 11.5456C10.0011 11.5531 10.0223 11.5487 10.0362 11.5345C10.0501 11.5203 10.0541 11.499 10.0462 11.4808C10.0383 11.4625 10.0201 11.4508 10.0002 11.4512" />
<path d="M17.0041 14.4532C16.9912 14.4531 16.9788 14.4583 16.9698 14.4676C16.9607 14.4768 16.9558 14.4893 16.9561 14.5022C16.9561 14.5221 16.9681 14.54 16.9866 14.5475C17.005 14.5551 17.0262 14.5507 17.0401 14.5365C17.0541 14.5222 17.058 14.501 17.0501 14.4827C17.0422 14.4644 17.024 14.4527 17.0041 14.4532" />
<path d="M13.4992 14.4532C13.4863 14.4531 13.4739 14.4583 13.4649 14.4676C13.4559 14.4768 13.4509 14.4893 13.4512 14.5022C13.4512 14.5221 13.4633 14.54 13.4817 14.5475C13.5001 14.5551 13.5213 14.5507 13.5352 14.5365C13.5492 14.5222 13.5531 14.501 13.5452 14.4827C13.5373 14.4644 13.5191 14.4527 13.4992 14.4532" />
<path fill-rule="evenodd" clip-rule="evenodd" d="M13.5041 14.4531C13.4843 14.4531 13.4664 14.4651 13.4588 14.4834C13.4512 14.5017 13.4554 14.5228 13.4694 14.5368C13.4835 14.5508 13.5045 14.555 13.5229 14.5474C13.5412 14.5398 13.5531 14.522 13.5531 14.5021C13.5531 14.4751 13.5312 14.4531 13.5041 14.4531Z" />
</g>
</svg>
