<svg width="24" height="24" viewBox="0 0 24 24" xmlns="http://www.w3.org/2000/svg">
<g stroke="currentColor" fill="none" stroke-width="1.5" stroke-linecap="round" stroke-linejoin="round"> 
<path d="M11.997 17.502C11.7219 17.502 11.4968 17.727 11.4998 18.0022C11.4998 18.2773 11.7249 18.5024 12 18.5024C12.2751 18.5024 12.5002 18.2773 12.5002 18.0022C12.5002 17.727 12.2751 17.502 11.997 17.502" />
<path d="M11.997 11.5C11.7219 11.5 11.4968 11.7251 11.4998 12.0002C11.4998 12.2753 11.7249 12.5004 12 12.5004C12.2751 12.5004 12.5002 12.2753 12.5002 12.0002C12.5002 11.7251 12.2751 11.5 11.997 11.5" />
<path d="M11.997 5.49707C11.7219 5.49707 11.4968 5.72216 11.4998 5.99728C11.4998 6.27239 11.7249 6.49749 12 6.49749C12.2751 6.49749 12.5002 6.27239 12.5002 5.99728C12.5002 5.72216 12.2751 5.49707 11.997 5.49707" />
</g>
</svg>
