<svg width="24" height="24" viewBox="0 0 24 24" xmlns="http://www.w3.org/2000/svg">
<g stroke="currentColor" fill="none" stroke-width="1.5" stroke-linecap="round" stroke-linejoin="round">
<circle cx="12" cy="11.9998" r="9.00375" />
<path d="M15.1141 11.8899L15.8797 11.1242C16.2781 10.7259 16.5019 10.1856 16.5019 9.6222C16.5019 9.05884 16.2781 8.51856 15.8797 8.1202V8.1202C15.4814 7.72184 14.9411 7.49805 14.3777 7.49805C13.8144 7.49805 13.2741 7.72184 12.8757 8.1202L12.1125 8.8834" />
<path d="M15.8797 8.12047L18.3664 5.63379" />
<path fill-rule="evenodd" clip-rule="evenodd" d="M14.3247 16.5428C14.9457 15.5569 15.3386 14.4447 15.4746 13.2875C15.5445 12.6782 15.3315 12.0704 14.8965 11.638C14.1933 10.9348 13.0645 9.80605 12.3617 9.10321C11.9295 8.66842 11.3218 8.45567 10.7128 8.52588C9.55563 8.66195 8.44349 9.05484 7.45764 9.67582C6.57249 10.2518 6.26996 11.4062 6.75881 12.3423C7.90807 14.3966 9.60392 16.0925 11.6582 17.2417C12.5944 17.7305 13.7487 17.428 14.3247 16.5428Z" />
<path d="M8.86444 15.1357L9.99916 14.001" />
<path d="M7.10673 12.8913L7.99833 11.9997" />
<path d="M11.091 16.9108L12 16.0018" />
</g>
</svg>