<svg width="24" height="24" viewBox="0 0 24 24" xmlns="http://www.w3.org/2000/svg">
<g stroke="currentColor" fill="none" stroke-width="1.5" stroke-linecap="round" stroke-linejoin="round">
<path d="M7.49813 2.99634V5.99759" />
<path d="M16.5019 2.99634V5.99759" />
<rect x="2.99625" y="4.49707" width="18.0075" height="16.5069" rx="3" />
<path d="M8.49852 10.9998H9.11326C9.64231 10.9998 10.112 11.3383 10.2793 11.8402V11.8402C10.4158 12.2498 10.3274 12.701 10.0465 13.0288L7.49811 16.0018H10.4994" />
<path d="M7.49811 12.0002C7.49811 11.4477 7.94601 10.9998 8.49852 10.9998" />
<path d="M14.501 10.9998H15.1158C15.6448 10.9998 16.1145 11.3383 16.2818 11.8402V11.8402C16.4183 12.2498 16.3299 12.701 16.049 13.0288L13.5006 16.0018H16.5019" />
<path d="M13.5006 12.0002C13.5006 11.4477 13.9485 10.9998 14.501 10.9998" />
</g>
</svg>
