<svg width="24" height="24" viewBox="0 0 24 24"  xmlns="http://www.w3.org/2000/svg">
<g stroke="currentColor" fill="none" stroke-width="1.5" stroke-linecap="round" stroke-linejoin="round">
<path d="M2 21H22" />
<path d="M8.5 16.955H15.5" />
<path d="M12 17V21" />
<path d="M3 21V14C3 13.4477 3.44772 13 4 13H6" />
<path d="M18 13H20C20.5523 13 21 13.4477 21 14V21" />
<path d="M15 17V21" />
<path d="M9 21V17" />
<path d="M6 21V10.8571C6 10.4983 6.19229 10.1669 6.50386 9.9889L11.5039 7.13176C11.8113 6.95608 12.1887 6.95608 12.4961 7.13176L17.4961 9.9889C17.8077 10.1669 18 10.4983 18 10.8571V21" />
<path d="M12 4.5V7" />
<rect x="12" y="2" width="4" height="3" rx="0.5" />
<path d="M11.8226 11.0738L11.8231 11.0734C11.9206 10.9783 12.0766 10.9803 12.1717 11.0777C12.2669 11.1752 12.265 11.3312 12.1676 11.4264C12.0703 11.5216 11.9142 11.5198 11.8189 11.4225C11.7237 11.3252 11.7254 11.1691 11.8226 11.0738" />
</g>
</svg>