<svg width="24" height="24" viewBox="0 0 24 24" xmlns="http://www.w3.org/2000/svg">
<g stroke="currentColor" fill="none" stroke-width="1.25" stroke-linecap="round" stroke-linejoin="round">
<path d="M7.5 2.5L9 4L7.5 5.5" />
<path d="M9 4H7C5.34315 4 4 5.34315 4 7"/>
<path d="M7.4996 18.45C7.4723 18.4499 7.4501 18.472 7.45 18.4993V18.5C7.45 18.5276 7.47239 18.55 7.5 18.55C7.52761 18.55 7.55 18.5276 7.55 18.5C7.55 18.4724 7.52761 18.45 7.5 18.45H7.4996"/>
<path d="M8.5 15.5H6.5"/>
<path d="M6 13H9"/>
<path fill-rule="evenodd" clip-rule="evenodd" d="M4.52174 21H10.4783C11.3187 21 12 20.3187 12 19.4783V11.5217C12 10.6813 11.3187 10 10.4783 10H4.52174C3.68131 10 3 10.6813 3 11.5217V19.4797C3.00082 20.3196 3.68188 21 4.52174 21Z" fill="none"/>
<path d="M16.4996 11.45C16.4723 11.4499 16.4501 11.472 16.45 11.4993V11.5C16.45 11.5276 16.4724 11.55 16.5 11.55C16.5276 11.55 16.55 11.5276 16.55 11.5C16.55 11.4724 16.5276 11.45 16.5 11.45H16.4996"/>
<path d="M17.5 8.5H15.5"/>
<path d="M15 6H18"/>
<path d="M15 14H19.4783C20.3187 14 21 13.3187 21 12.4783V4.52174C21 4.11815 20.8397 3.73109 20.5543 3.44571C20.2689 3.16033 19.8819 3 19.4783 3H13.5217C12.6813 3 12 3.68131 12 4.52174V7" fill="none"/>
<path d="M16.5 21.5L15 20L16.5 18.5"/>
<path d="M15 20H17C18.6569 20 20 18.6569 20 17"/>
</g>
</svg>

