<svg width="24" height="24" viewBox="0 0 24 24" xmlns="http://www.w3.org/2000/svg">
<g stroke="currentColor" fill="none" stroke-width="1.5" stroke-linecap="round" stroke-linejoin="round">
<path d="M15 15.1899H9" />
<path fill-rule="evenodd" clip-rule="evenodd" d="M8.541 14.8959C6.765 13.6409 5.7 11.4499 6.075 9.03795C6.481 6.43095 8.654 4.34995 11.275 4.04295C14.913 3.61595 18 6.44795 18 9.99995C18 12.0249 16.994 13.8119 15.457 14.8979C15.181 15.0929 15 15.3949 15 15.7329V18.4999C15 19.8809 13.881 20.9999 12.5 20.9999H11.5C10.119 20.9999 9 19.8809 9 18.4999V15.7369C9 15.3959 8.818 15.0919 8.541 14.8959Z" />
<path d="M20 5.00006L21.19 3.81006" />
<path d="M4 15L2.81 16.19" />
<path d="M5 4.00006L3.81 2.81006" />
<path d="M20 15L21.19 16.19" />
<path d="M21 10H22.69" />
<path d="M1.31 10H3" />
<path d="M9 18H14.87" />
</g>
</svg>