<svg width="24" height="24" viewBox="0 0 24 24" fill="none" xmlns="http://www.w3.org/2000/svg">
  <g stroke="currentColor" fill="none" strokeWidth="1.5" strokeLinecap="round" strokeLinejoin="round">
    <path fillRule="evenodd" clipRule="evenodd"
      d="M12.425 2.94836L15.147 2.06736C15.791 1.85836 16.491 2.14936 16.799 2.75136L18.1 5.29936C18.232 5.55736 18.442 5.76836 18.701 5.90036L21.217 7.18536C21.838 7.50236 22.137 8.22436 21.922 8.88836L21.052 11.5764C20.963 11.8524 20.963 12.1494 21.052 12.4254L21.933 15.1474C22.142 15.7914 21.851 16.4914 21.249 16.7994L18.701 18.1004C18.443 18.2324 18.232 18.4424 18.1 18.7014L16.798 21.2494C16.49 21.8524 15.79 22.1424 15.146 21.9334L12.424 21.0524C12.148 20.9634 11.851 20.9634 11.575 21.0524L8.85298 21.9334C8.20898 22.1424 7.50898 21.8514 7.20098 21.2494L5.89998 18.7014C5.76798 18.4434 5.55798 18.2324 5.29898 18.1004L2.75098 16.7984C2.14798 16.4904 1.85798 15.7904 2.06698 15.1464L2.94798 12.4244C3.03698 12.1484 3.03698 11.8514 2.94798 11.5754L2.06698 8.85436C1.85898 8.21036 2.14898 7.50936 2.75198 7.20136L5.29898 5.90036C5.55798 5.76836 5.76798 5.55836 5.89998 5.29936L7.20198 2.75136C7.50898 2.14936 8.20998 1.85936 8.85398 2.06736L11.576 2.94836C11.851 3.03836 12.149 3.03836 12.425 2.94836V2.94836Z" />
    <path d="M9 15L15 9" />
    <path
      d="M9.249 9C9.111 9 8.999 9.112 9 9.25C9 9.388 9.112 9.5 9.25 9.5C9.388 9.5 9.5 9.388 9.5 9.25C9.5 9.112 9.388 9 9.249 9" />
    <path
      d="M14.749 14.5C14.611 14.5 14.499 14.612 14.5 14.75C14.5 14.888 14.612 15 14.75 15C14.888 15 15 14.888 15 14.75C15 14.612 14.888 14.5 14.749 14.5" />
  </g>
</svg>