<svg width="24" height="24" viewBox="0 0 24 24" xmlns="http://www.w3.org/2000/svg">
<g stroke="currentColor" fill="none" stroke-width="1.5" stroke-linecap="round" stroke-linejoin="round">
<path d="M20 3V7" />
<path d="M18 5H22" />
<path d="M14 5H5C3.895 5 3 5.895 3 7V19C3 20.105 3.895 21 5 21H18C19.105 21 20 20.105 20 19V11" />
<path fill-rule="evenodd" clip-rule="evenodd" d="M6.967 14.467L8.471 12.081C8.82 11.528 9.597 11.453 10.045 11.929L11.12 13.071L12.247 10.676C12.594 9.938 13.632 9.904 14.027 10.618L16.181 14.516C16.549 15.183 16.066 16 15.305 16H7.813C7.025 16 6.547 15.133 6.967 14.467Z" />
</g>
</svg>
