<svg fill="none" height="65" viewBox="0 0 64 65" width="64" xmlns="http://www.w3.org/2000/svg" xmlns:xlink="http://www.w3.org/1999/xlink"><linearGradient id="a" gradientUnits="userSpaceOnUse" x1="43.8414" x2="70.1982" y1="69.2013" y2="13.7208"><stop offset="0" stop-color="#4f46e5"/><stop offset="1" stop-color="#4f46e5" stop-opacity=".1"/></linearGradient><clipPath id="b"><path d="m0 .799805h64v64h-64z"/></clipPath><g clip-path="url(#b)"><path d="m58.9345 17.4642c-8.1771-6.2866-16.1084-1.1631-24.955-2.9746-8.9105-1.8246-12.4606-7.90001-22.6095-5.09563-8.99025 2.48413-14.44525 12.44383-9.503 20.78223 1.40837 2.3761 3.80762 4.1688 4.78812 6.8274 1.58163 4.2889-.82587 7.5816-.35625 11.7965 1.9515 17.5126 28.69673 10.7293 38.53793 5.2806 15.4337-8.545 25.8747-27.5621 14.0977-36.6165z" fill="url(#a)" fill-opacity=".12"/><g fill="#6366f1"><path d="m51.3975 11.0969c-.4641 0-.9282-.1767-1.2816-.53-.7066-.70658-.7066-1.85645 0-2.5632s1.8566-.70675 2.5633 0c.7066.70675.7066 1.8565 0 2.5632-.3533.3533-.8174.53-1.2817.53zm.0002-2.37383c-.1442 0-.2882.05475-.3978.1645-.2192.21925-.2192.57613 0 .7955.2193.21925.5761.21938.7955 0 .2193-.21925.2193-.57612 0-.7955-.1097-.10975-.2537-.1645-.3977-.1645z" opacity=".24"/><path d="m54.5391 17.2082c-.4642.0002-.9283-.1766-1.2817-.53-.3423-.3423-.5308-.7975-.5308-1.2816s.1885-.9392.5308-1.2816c.7065-.7066 1.8564-.7068 2.5632 0 .3423.3424.5308.7975.5308 1.2816 0 .4843-.1885.9394-.531 1.2816-.353.3533-.8172.53-1.2813.53zm0-2.3738c-.144 0-.2882.0547-.3978.1645-.1064.1062-.1647.2475-.1647.3977 0 .1503.0585.2915.1647.3978.2194.2193.5763.2193.7955 0 .1064-.1063.1648-.2475.1648-.3978 0-.1502-.0585-.2914-.1648-.3977-.1096-.1098-.2536-.1645-.3977-.1645z" opacity=".48"/><path d="m13.171 30.3946c-.4642 0-.9284-.1767-1.2817-.53-.7066-.7067-.7066-1.8566 0-2.5632.7067-.7065 1.8567-.7066 2.5633 0 .7066.7068.7066 1.8565 0 2.5632-.3533.3533-.8175.53-1.2816.53zm0-2.3738c-.144 0-.2882.0547-.3978.1645-.2194.2192-.2194.5761 0 .7955.2193.2194.5763.2192.7955 0 .2194-.2193.2194-.5761 0-.7955-.1096-.1098-.2536-.1645-.3977-.1645z" opacity=".24"/><path d="m12.3672 36.0126c-.16 0-.3199-.061-.442-.183l-.7455-.7455-.7455.7455c-.2442.244-.63979.244-.88392 0-.24412-.2441-.24412-.6399 0-.8839l1.18752-1.1875c.2441-.244.6397-.244.8839 0l1.1875 1.1875c.2441.2441.2441.6399 0 .8839-.1222.1219-.282.183-.442.183z" opacity=".48"/><path d="m53.3515 54.1122c-.16 0-.3198-.061-.442-.183l-.7455-.7455-.7455.7455c-.2441.244-.6397.244-.8838 0-.2442-.2442-.2442-.6399 0-.8839l1.1875-1.1875c.2441-.244.6397-.244.8838 0l1.1875 1.1875c.2442.2441.2442.6399 0 .8839-.1221.1218-.282.183-.442.183z" opacity=".48"/></g><path d="m48 32.7998c0 8.8366-7.1636 16-16 16-8.8367 0-16-7.1634-16-16 0-8.8367 7.1633-16 16-16 8.8364 0 16 7.1633 16 16z" fill="#93c5fd"/><path d="m36.2146 23.2114c-.1819-.7031-.958-1.6999-3.8985-1.6999-4.5429 0-5.1899.6728-6.3989-.489-1.02-.9803-1.6191 3.7375-.259 5.2358-.574 2.1221-.1148 4.2475-.1148 4.2475h12.782c-.0002 0 1.0725-4.9648-2.1108-7.2944z" fill="#6366f1"/><path d="m26.8336 30.729s-.5511-1.0093-1.6531-1.0093c-1.1021 0-1.8829 4.8453 1.6531 4.0377z" fill="#fed7aa"/><path d="m37.0352 30.729s.551-1.0093 1.653-1.0093c1.1023 0 1.8829 4.8453-1.653 4.0377z" fill="#fed7aa"/><path d="m31.9345 24.2363c-8.4434 0-6.8291 13.8477 0 13.8477 6.8288 0 8.4433-13.8477 0-13.8477z" fill="#ffedd5"/><g fill="#6366f1"><path d="m28.8922 22.7783c-1.6177.1126-2.1731.1513-2.9772-.6213-.5229-.5027-.9345.4936-1.0288 1.7854-.1298-1.7471.3584-3.5642 1.0288-2.9199.8042.7726 1.3596.734 2.9776.6214.815-.0567 1.8996-.1322 3.4214-.1322 2.9406 0 3.7168.9966 3.8984 1.7 2.1331 1.5605 2.3547 4.3025 2.2693 5.9436-.0869-1.5864-.5762-3.5706-2.2693-4.8093-.1816-.7034-.9578-1.7-3.8984-1.7-1.5221 0-2.6068.0755-3.4218.1323z"/><path d="m26.19 30.0413c0-7.3688 5.7432-6.5585 5.7432-6.5585s5.7429-.8103 5.7429 6.5585c0 0-.7229-3.0456-2.3821-3.8762-.3543-.1775-.6057-.0673-.9965.104-.4612.2021-1.1165.4893-2.3643.4893-1.2479 0-1.9032-.2872-2.3644-.4893-.3909-.1713-.6423-.2815-.9967-.104-1.6589.8306-2.3821 3.8762-2.3821 3.8762z"/><path d="m43.552 43.8694c-.4104-1.0056-1.2442-1.8118-2.3211-2.1658l-5.1884-1.7048c-.4895-.1609-.8221-.6157-.8267-1.1311l-.0185-2.0952c-.8672.7807-1.9468 1.2646-3.2093 1.2758-1.2622.011-2.3501-.4538-3.2312-1.219l.0178 2.0218c.0047.5232-.3298.9892-.8271 1.1526l-5.1865 1.7009c-1.0745.3525-1.9075 1.155-2.3196 2.1572 2.9126 3.0425 7.0144 4.9375 11.5591 4.9375 4.5405 0 8.6391-1.8918 11.5515-4.9299z"/></g><path d="m31.8096 44.5388c2.6604 0 4.9297-1.6699 5.82-4.0183l-1.5876-.5217c-.4895-.1609-.822-.616-.8264-1.1311l-.0186-2.0952c-.8674.7807-1.9468 1.2646-3.2092 1.2758-1.2625.011-2.3503-.4538-3.2312-1.219l.0178 2.0218c.0047.5232-.3298.9892-.8271 1.1526l-1.9141.6276c.9189 2.2898 3.158 3.9075 5.7764 3.9075z" fill="#fed7aa"/><path d="m32 18.0498c8.627 0 15.6582 6.8284 15.9866 15.375.008-.2075.0134-.4155.0134-.625 0-8.8364-7.1636-16-16-16-8.8367 0-16 7.1636-16 16 0 .2095.0051.4175.0132.625.3284-8.5466 7.3596-15.375 15.9868-15.375z" fill="#6366f1"/></g></svg>