<svg width="320" height="240" viewBox="0 0 320 240" fill="none" xmlns="http://www.w3.org/2000/svg">
<path opacity="0.16" fill-rule="evenodd" clip-rule="evenodd" d="M0 132.52C0 160.159 9.96359 185.344 26.3594 204.378C45.169 226.221 72.4448 239.954 102.848 240C116.136 240.02 128.841 237.409 140.512 232.642C146.546 230.177 153.3 230.46 159.144 233.381C166 236.803 173.676 238.721 181.782 238.721C185.131 238.721 188.41 238.391 191.582 237.766C200.636 235.985 208.875 231.772 215.642 225.805C219.894 222.054 225.34 220.168 230.906 220.175H231.001C249.394 220.175 266.478 214.353 280.663 204.378C293.344 195.471 303.699 183.247 310.598 168.894C316.614 156.387 320 142.259 320 127.305C320 76.0181 280.151 34.4356 231.001 34.4356C225.991 34.4356 221.082 34.8772 216.293 35.7012C203.612 14.28 180.904 0 154.999 0C144.062 0 133.694 2.54512 124.412 7.10748C115.586 11.4322 107.738 17.5775 101.319 25.0667C79.5209 25.4293 59.3653 32.86 42.8686 45.261C16.901 64.7702 0 96.5882 0 132.52Z" fill="url(#paint0_linear_1216_79869)"/>
<g opacity="0.2">
<path d="M181.286 50.4252C179.606 50.4252 177.926 49.787 176.647 48.5101C174.089 45.9564 174.089 41.8015 176.647 39.2483C179.204 36.6955 183.366 36.6946 185.924 39.2483C188.482 41.802 188.482 45.9568 185.924 48.5101C184.645 49.787 182.966 50.4252 181.286 50.4252ZM181.286 41.8476C180.765 41.8476 180.243 42.0454 179.846 42.442C179.052 43.2342 179.052 44.5237 179.846 45.3164C180.64 46.1086 181.93 46.1091 182.725 45.3164C183.518 44.5242 183.518 43.2347 182.725 42.442C182.328 42.0459 181.807 41.8476 181.286 41.8476Z" fill="#919EAB"/>
<path d="M129.716 203.333C128.036 203.333 126.356 202.695 125.077 201.418C122.519 198.865 122.519 194.71 125.077 192.156C127.634 189.603 131.797 189.603 134.354 192.156C136.912 194.71 136.912 198.865 134.354 201.418C133.076 202.695 131.396 203.333 129.716 203.333ZM129.716 194.756C129.195 194.756 128.673 194.954 128.276 195.35C127.482 196.142 127.482 197.432 128.276 198.225C129.07 199.017 130.361 199.017 131.155 198.225C131.949 197.432 131.949 196.143 131.155 195.35C130.759 194.954 130.237 194.756 129.716 194.756Z" fill="#919EAB"/>
</g>
<g opacity="0.2">
<path d="M244.405 172.488C243.826 172.488 243.247 172.267 242.805 171.826L240.107 169.133L237.408 171.826C236.526 172.708 235.092 172.708 234.21 171.826C233.326 170.944 233.326 169.514 234.21 168.633L238.508 164.342C239.39 163.46 240.823 163.46 241.706 164.342L246.004 168.633C246.888 169.515 246.888 170.945 246.004 171.826C245.563 172.267 244.983 172.488 244.405 172.488Z" fill="#919EAB"/>
<path d="M84.8577 163.883C84.279 163.883 83.6995 163.663 83.2584 163.222L80.5598 160.529L77.8612 163.222C76.9785 164.104 75.5453 164.104 74.6627 163.222C73.7791 162.34 73.7791 160.91 74.6627 160.029L78.9605 155.738C79.8432 154.856 81.2764 154.856 82.1591 155.738L86.4569 160.029C87.3405 160.911 87.3405 162.341 86.4569 163.222C86.0154 163.663 85.4363 163.883 84.8577 163.883Z" fill="#919EAB"/>
</g>
<path opacity="0.16" fill-rule="evenodd" clip-rule="evenodd" d="M119.365 84.5779V109.746C119.365 113.071 120.981 116.181 123.762 118.003C132.36 123.636 151.314 135.372 160 135.372C168.686 135.372 187.64 123.636 196.238 118.003C199.019 116.181 200.635 113.071 200.635 109.746V84.5779C200.635 76.1622 193.813 69.3398 185.397 69.3398H134.603C126.187 69.3398 119.365 76.1622 119.365 84.5779ZM138.413 84.5782C136.309 84.5782 134.603 86.2838 134.603 88.3877C134.603 90.4916 136.309 92.1972 138.413 92.1972H161.27C163.374 92.1972 165.079 90.4916 165.079 88.3877C165.079 86.2838 163.374 84.5782 161.27 84.5782H138.413ZM138.413 102.356C136.309 102.356 134.603 104.062 134.603 106.165C134.603 108.269 136.309 109.975 138.413 109.975H176.508C178.612 109.975 180.317 108.269 180.317 106.165C180.317 104.062 178.612 102.356 176.508 102.356H138.413Z" fill="#919EAB"/>
<path d="M134.603 88.3878C134.603 86.2839 136.309 84.5782 138.413 84.5782H161.27C163.374 84.5782 165.079 86.2839 165.079 88.3878C165.079 90.4916 163.374 92.1973 161.27 92.1973H138.413C136.309 92.1973 134.603 90.4916 134.603 88.3878Z" fill="#919EAB" fill-opacity="0.48"/>
<path d="M134.603 106.166C134.603 104.062 136.309 102.356 138.413 102.356H176.508C178.612 102.356 180.317 104.062 180.317 106.166C180.317 108.269 178.612 109.975 176.508 109.975H138.413C136.309 109.975 134.603 108.269 134.603 106.166Z" fill="#919EAB" fill-opacity="0.48"/>
<path d="M119.365 90.9324C116.777 92.8534 114.49 94.6103 112.655 96.0453C109.597 98.4364 107.68 101.963 107.422 105.836C107.07 111.106 106.667 119.953 106.667 132.832C106.667 145.011 107.388 153.585 108.061 158.938C108.617 163.351 111.572 166.851 115.928 167.751C122.914 169.192 136.252 170.927 160 170.927C183.748 170.927 197.086 169.192 204.072 167.751C208.428 166.851 211.383 163.351 211.939 158.938C212.612 153.585 213.333 145.011 213.333 132.832C213.333 119.953 212.93 111.106 212.578 105.836C212.319 101.963 210.403 98.4364 207.345 96.0453C205.51 94.6103 203.223 92.8534 200.635 90.9324V109.746C200.635 113.072 199.019 116.181 196.238 118.003C187.64 123.636 168.686 135.372 160 135.372C151.314 135.372 132.36 123.636 123.762 118.003C120.981 116.181 119.365 113.072 119.365 109.746V90.9324Z" fill="#919EAB" fill-opacity="0.48"/>
<defs>
<linearGradient id="paint0_linear_1216_79869" x1="219.207" y1="282.688" x2="336.928" y2="17.3653" gradientUnits="userSpaceOnUse">
<stop stop-color="#919EAB"/>
<stop offset="1" stop-color="#919EAB" stop-opacity="0.01"/>
</linearGradient>
</defs>
</svg>
