<svg width="24" height="24" viewBox="0 0 24 24" xmlns="http://www.w3.org/2000/svg">
<g stroke="currentColor" fill="none" stroke-width="1.5" stroke-linecap="round" stroke-linejoin="round">
<path d="M9 21V15C9 14.4477 9.44772 14 10 14H11" />
<path d="M3 10.5803L10.6984 3.9815C11.4474 3.3395 12.5526 3.3395 13.3016 3.9815L21 10.5803" />
<path d="M12 21H3" />
<path d="M4.28549 9.47852V21.0001" />
<path d="M17.5005 16.375C17.5694 16.3753 17.6252 16.4313 17.625 16.5003C17.6248 16.5693 17.5688 16.6251 17.4998 16.625C17.4309 16.6249 17.375 16.569 17.375 16.5C17.3748 16.4667 17.388 16.4347 17.4116 16.4113C17.4352 16.3878 17.4672 16.3747 17.5005 16.375" />
<path d="M14 16.5V16.5C14 14.567 15.567 13 17.5 13V13C19.433 13 21 14.567 21 16.5V16.5" />
<path d="M14 16.5C14 18.1611 15.8559 19.9377 16.8646 20.7811C17.2374 21.0728 17.761 21.073 18.134 20.7814C19.1436 19.9382 21 18.1613 21 16.5" />
<path d="M15.6236 5.97183V3.75C15.6236 3.33579 15.9594 3 16.3736 3H18.9645C19.3787 3 19.7145 3.33579 19.7145 3.75V9.4784" />
</g>
</svg>
