<svg width="24" height="24" viewBox="0 0 24 24" xmlns="http://www.w3.org/2000/svg">
<g stroke="currentColor" fill="none">
<path d="M19 5H20C21.105 5 22 5.895 22 7V19C22 20.105 21.105 21 20 21H4C2.895 21 2 20.105 2 19V7C2 5.895 2.895 5 4 5H5" stroke-width="1.5" stroke-linecap="round" stroke-linejoin="round"/>
<path fill-rule="evenodd" clip-rule="evenodd" d="M12 6C12 4.343 10.657 3 9 3H6C5.448 3 5 3.448 5 4V17C5 17.552 5.448 18 6 18H9C10.657 18 12 19.343 12 21C12 19.343 13.343 18 15 18H18C18.552 18 19 17.552 19 17V4C19 3.448 18.552 3 18 3H15C13.343 3 12 4.343 12 6Z" stroke-width="1.5" stroke-linecap="round" stroke-linejoin="round"/>
<path d="M12 6V21" stroke-width="1.5" stroke-linecap="round" stroke-linejoin="round"/>
</g>
</svg>
