<svg width="24" height="24" viewBox="0 0 24 24" xmlns="http://www.w3.org/2000/svg">
<g stroke="currentColor" fill="none">
<path fill-rule="evenodd" clip-rule="evenodd" d="M12.8003 2.99658C13.2224 2.99658 13.5991 3.26161 13.7417 3.65886L14.2499 5.07445C14.3306 5.29705 14.4872 5.48409 14.6921 5.60267L16.1998 6.47303C16.4045 6.59115 16.6444 6.63297 16.877 6.59108L18.3577 6.32397C18.7734 6.24837 19.1918 6.44217 19.4031 6.80817L20.2034 8.18874C20.4152 8.55375 20.3752 9.01241 20.1034 9.33522L19.132 10.4837C18.979 10.6643 18.895 10.8933 18.8949 11.13V12.8707C18.895 13.1074 18.979 13.3364 19.132 13.517L20.1034 14.6654C20.3752 14.9882 20.4152 15.4469 20.2034 15.8119L19.4031 17.1925C19.192 17.5581 18.7741 17.7518 18.3587 17.6767L16.878 17.4096C16.6454 17.3677 16.4055 17.4095 16.2008 17.5276L14.6931 18.398C14.4882 18.5166 14.3316 18.7036 14.2509 18.9262L13.7427 20.3418C13.5999 20.7394 13.2228 21.0044 12.8003 21.0041H11.1997C10.7776 21.0041 10.4009 20.7391 10.2583 20.3418L9.75007 18.9262C9.66942 18.7039 9.51328 18.517 9.30888 18.398L7.80025 17.5276C7.59553 17.4095 7.35559 17.3677 7.12297 17.4096L5.64235 17.6767C5.22659 17.7523 4.80816 17.5585 4.59692 17.1925L3.79659 15.8119C3.58478 15.4469 3.62481 14.9882 3.89663 14.6654L4.86803 13.517C5.02103 13.3364 5.10504 13.1074 5.10513 12.8707V11.13C5.10504 10.8933 5.02103 10.6643 4.86803 10.4837L3.90663 9.33522C3.63481 9.01241 3.59479 8.55375 3.80659 8.18874L4.60692 6.80817C4.81803 6.44256 5.23592 6.24882 5.65136 6.32397L7.13197 6.59108C7.36459 6.63297 7.60453 6.59115 7.80926 6.47303L9.31789 5.60267C9.52228 5.48371 9.67843 5.29677 9.75907 5.07445L10.2673 3.65886C10.4088 3.2647 10.7809 3.00042 11.1997 2.99658H12.8003Z" stroke-width="1.5" stroke-linecap="round" stroke-linejoin="round"/>
<circle cx="12" cy="12.0002" r="2.75115" stroke-width="1.5" stroke-linecap="round" stroke-linejoin="round"/>
</g>
</svg>

