<svg width="24" height="24" viewBox="0 0 24 24" xmlns="http://www.w3.org/2000/svg">
<g stroke="currentColor" fill="none">
<path d="M12.4692 3.02278C13.8329 4.38649 13.8329 6.5975 12.4692 7.96121C11.1055 9.32492 8.89449 9.32492 7.53078 7.96121C6.16707 6.5975 6.16707 4.38649 7.53078 3.02278C8.89449 1.65907 11.1055 1.65907 12.4692 3.02278" stroke-width="1.5" stroke-linecap="round" stroke-linejoin="round"/>
<path d="M14.363 12.7962C13.064 12.2772 11.54 11.9912 10 11.9912C5.952 11.9912 2 13.9582 2 16.9832V17.9832C2 18.5352 2.448 18.9832 3 18.9832H12.413" stroke-width="1.5" stroke-linecap="round" stroke-linejoin="round"/>
<path d="M17 22C14.239 22 12 19.762 12 17C12 14.296 14.3 11.997 17.004 12C19.764 12.002 22 14.24 22 17C22 19.761 19.762 22 17 22" stroke-width="1.5" stroke-linecap="round" stroke-linejoin="round"/>
<path d="M17 15V15.67" stroke-width="1.5" stroke-linecap="round" stroke-linejoin="round"/>
<path d="M17 18.33V19" stroke-width="1.5" stroke-linecap="round" stroke-linejoin="round"/>
<path d="M15.27 16L15.85 16.33" stroke-width="1.5" stroke-linecap="round" stroke-linejoin="round"/>
<path d="M18.16 17.67L18.73 18" stroke-width="1.5" stroke-linecap="round" stroke-linejoin="round"/>
<path d="M15.27 18L15.85 17.67" stroke-width="1.5" stroke-linecap="round" stroke-linejoin="round"/>
<path d="M18.16 16.33L18.73 16" stroke-width="1.5" stroke-linecap="round" stroke-linejoin="round"/>
<path d="M17.9433 16.0567C18.4643 16.5777 18.4643 17.4223 17.9433 17.9433C17.4223 18.4643 16.5777 18.4643 16.0567 17.9433C15.5358 17.4223 15.5358 16.5777 16.0567 16.0567C16.5777 15.5358 17.4223 15.5358 17.9433 16.0567" stroke-width="1.5" stroke-linecap="round" stroke-linejoin="round"/>
</g>
</svg>
