<svg width="24" height="24" viewBox="0 0 24 24" xmlns="http://www.w3.org/2000/svg">
<g stroke="currentColor" fill="none" stroke-width="1.5" stroke-linecap="round" stroke-linejoin="round">
<path fill-rule="evenodd" clip-rule="evenodd" d="M8.45501 15.973C5.14501 15.674 2.61001 12.692 3.05001 9.218C3.43301 6.187 6.17101 4 9.22701 4H15C18.375 4 21.099 6.787 20.997 10.185C20.899 13.469 18.033 16 14.748 16H12.188C11.402 16.785 10.279 17.909 9.30701 18.881C8.99201 19.196 8.45501 18.972 8.45501 18.526V15.973Z"/>
<path d="M12.177 10.073C12.275 10.171 12.275 10.329 12.177 10.427C12.079 10.525 11.921 10.525 11.823 10.427C11.725 10.329 11.725 10.171 11.823 10.073C11.921 9.975 12.079 9.976 12.177 10.073" />
<path d="M16.177 10.073C16.275 10.171 16.275 10.329 16.177 10.427C16.079 10.525 15.921 10.525 15.823 10.427C15.725 10.329 15.725 10.171 15.823 10.073C15.921 9.975 16.079 9.976 16.177 10.073" />
<path d="M8.177 10.073C8.275 10.171 8.275 10.329 8.177 10.427C8.079 10.525 7.921 10.525 7.823 10.427C7.725 10.329 7.725 10.171 7.823 10.073C7.921 9.975 8.079 9.976 8.177 10.073" />
</g>
</svg>

