<svg width="24" height="24" viewBox="0 0 24 24" fill="none" xmlns="http://www.w3.org/2000/svg">
    <g stroke="currentColor" fill="none" stroke-width="1.5" stroke-linecap="round" stroke-linejoin="round">
        <path
            d="M8.57942 17.0019H4.99693C3.89147 17.0019 2.99609 16.1066 2.99609 15.0011V4.99693C2.99609 3.89147 3.89147 2.99609 4.99693 2.99609H15.0011C16.1066 2.99609 17.0019 3.89147 17.0019 4.99693V7.99818" />
        <path fill-rule="evenodd" clip-rule="evenodd"
            d="M15.6235 20.6815L21.681 14.624C22.1112 14.1938 22.1112 13.4975 21.681 13.0684L19.9353 11.3226C19.5051 10.8925 18.8088 10.8925 18.3797 11.3226L12.3221 17.3802C12.115 17.5872 12 17.8664 12 18.1575V21.0037H14.8462C15.1373 21.0037 15.4164 20.8886 15.6235 20.6815Z" />
        <path d="M11.9997 9.08203L9.49867 11.5831L7.99805 10.0824" />
    </g>
</svg>