<svg width="24" height="24" viewBox="0 0 24 24" fill="none" xmlns="http://www.w3.org/2000/svg">
    <g stroke="currentColor" fill="none" stroke-width="1.5" stroke-linecap="round" stroke-linejoin="round">
        <rect x="2.74609" y="13.5" width="18.5077" height="3.00125" rx="1" />
        <path d="M3.9963 16.5V21.5021" />
        <rect x="13.001" y="16.5" width="7.00292" height="5.00208" />
        <path d="M17.2526 19.0022H15.752" />
        <path fill-rule="evenodd" clip-rule="evenodd"
            d="M15.8777 10.499H8.12252C7.82429 10.499 7.53827 10.3805 7.3274 10.1697C7.11652 9.95878 6.99805 9.67277 6.99805 9.37454V4.62056C6.99805 4.32233 7.11652 4.03632 7.3274 3.82544C7.53827 3.61456 7.82429 3.49609 8.12252 3.49609H15.8777C16.4988 3.49609 17.0022 3.99954 17.0022 4.62056V9.37454C17.0022 9.99557 16.4988 10.499 15.8777 10.499Z" />
        <path d="M14.0013 13.4993L13.5011 10.498" />
        <path d="M9.99913 13.4993L10.4993 10.498" />
    </g>
</svg>