<svg width="25" height="24" viewBox="0 0 25 24" xmlns="http://www.w3.org/2000/svg">
<g stroke="currentColor" fill="none" stroke-width="1.5" stroke-linecap="round" stroke-linejoin="round">
<path d="M3.45338 14.9995V13.9995C3.4387 13.1995 3.75005 12.4278 4.31588 11.862C4.8817 11.2962 5.65332 10.9848 6.45338 10.9995H9.45338C10.2534 10.9848 11.0251 11.2962 11.5909 11.862C12.1567 12.4278 12.4681 13.1995 12.4534 13.9995V14.9995" />
<path d="M16.4534 10.9995H18.4534C19.2534 10.9848 20.025 11.2962 20.5909 11.862C21.1567 12.4278 21.468 13.1995 21.4534 13.9995V14.9995" />
<circle cx="7.95337" cy="5.5" r="2.5" />
<circle cx="17.4534" cy="6" r="2" />
<path d="M18.4534 17.5H15.8615" />
<path d="M18.4534 20.0561V17.5" />
<path d="M6.45337 17.5488C7.61178 19.6763 9.84041 21.0004 12.2628 21.0004C14.6852 21.0004 16.9138 19.6763 18.0722 17.5488" />
</g>
</svg>