<svg width="24" height="24" viewBox="0 0 24 24" fill="none" xmlns="http://www.w3.org/2000/svg">
<g stroke="currentColor" fill="none" stroke-width="1.5" stroke-linecap="round" stroke-linejoin="round">
<path d="M8 3H6C4.34315 3 3 4.34315 3 6V8" />
<path d="M16 21H18C19.6569 21 21 19.6569 21 18V12" />
<path d="M13.25 6.45312V9.05043C13.25 9.61859 13.571 10.138 14.0792 10.3921L14.6584 10.6817C15.503 11.104 16.4971 11.104 17.3417 10.6817L17.9209 10.3921C18.429 10.138 18.75 9.61858 18.75 9.05043V6.45312" />
<path fill-rule="evenodd" clip-rule="evenodd" d="M11.5685 5.65213L14.9214 7.25542C15.6035 7.58155 16.3964 7.58155 17.0784 7.25542L20.4314 5.65213C20.7787 5.48597 20.9999 5.1351 20.9999 4.75001C20.9999 4.36492 20.7787 4.01405 20.4314 3.84789L17.0784 2.2446C16.3964 1.91847 15.6035 1.91847 14.9214 2.2446L11.5685 3.84789C11.2211 4.01405 11 4.36492 11 4.75001C11 5.1351 11.2211 5.48597 11.5685 5.65213Z" />
<path d="M21 4.74219V6.99874" />
<path d="M3 14.25V20.5C3 20.7761 3.22386 21 3.5 21H11.5C11.7761 21 12 20.7761 12 20.5V14.25" />
<path d="M8.94922 21V17.5C8.94922 17.2239 8.72536 17 8.44922 17H6.44922C6.17308 17 5.94922 17.2239 5.94922 17.5V21" />
<path d="M13 15L7.8 11.1C7.62222 10.9667 7.37778 10.9667 7.2 11.1L2 15" />
</g>
</svg>
