<svg width="24" height="24" viewBox="0 0 24 24" xmlns="http://www.w3.org/2000/svg">
<g stroke="currentColor" fill="none" stroke-width="1.5" stroke-linecap="round" stroke-linejoin="round">
<path d="M15 3V5" />
<path d="M7 3V5" />
<path d="M3 8H19" />
<path d="M19 10V6C19 4.895 18.105 4 17 4H5C3.895 4 3 4.895 3 6V17C3 18.105 3.895 19 5 19H11" />
<path d="M6.999 10.75C6.861 10.75 6.749 10.862 6.75 11C6.75 11.138 6.862 11.25 7 11.25C7.138 11.25 7.25 11.138 7.25 11C7.25 10.862 7.138 10.75 6.999 10.75" />
<path d="M6.999 14.75C6.861 14.75 6.749 14.862 6.75 15C6.75 15.138 6.862 15.25 7 15.25C7.138 15.25 7.25 15.138 7.25 15C7.25 14.862 7.138 14.75 6.999 14.75" />
<path d="M10.75 11.001C10.75 11.139 10.862 11.251 11 11.25C11.138 11.25 11.25 11.138 11.25 11C11.25 10.862 11.138 10.75 11 10.75C10.862 10.75 10.75 10.862 10.75 11.001" />
<path fill-rule="evenodd" clip-rule="evenodd" d="M17.293 20.7073L21.707 16.2933C22.098 15.9023 22.098 15.2693 21.707 14.8793L20.121 13.2932C19.73 12.9022 19.097 12.9022 18.707 13.2932L14.293 17.7073C14.105 17.8953 14 18.1492 14 18.4142V21.0002H16.586C16.851 21.0002 17.105 20.8953 17.293 20.7073V20.7073Z" />
</g>
</svg>
