<svg width="24" height="24" viewBox="0 0 24 24" xmlns="http://www.w3.org/2000/svg">
<g stroke="currentColor" fill="none" stroke-width="1.5" stroke-linecap="round" stroke-linejoin="round">
<path d="M17.3342 6.58253L15.0428 8.87516L13.666 7.49959" />
<path d="M16.0017 12.9752C18.9625 12.7042 21.1722 10.1297 20.9912 7.16207C20.8102 4.19439 18.304 1.90754 15.3322 1.9984C12.3604 2.08925 9.99853 4.52493 9.99916 7.49812C9.99916 7.66701 10.0095 7.83334 10.0244 7.99833" />
<rect x="2.99625" y="14.8137" width="3.00125" height="6.19006" rx="0.5" />
<path d="M6.09128 19.6757L7.3076 20.6803C7.56075 20.8894 7.87882 21.0037 8.20715 21.0037H12.2983C12.9682 21.0037 13.5571 20.5596 13.7411 19.9154L14.4351 17.4868C14.5806 16.9774 14.4786 16.4293 14.1596 16.0063C13.8406 15.5834 13.3416 15.3348 12.8118 15.3348H10.9996" />
<path d="M10.9996 15.3347V13.6703C10.9996 12.924 10.5037 12.2686 9.7855 12.0657C9.06731 11.8628 8.30177 12.1619 7.91129 12.7979L5.9975 15.9148" />
</g>
</svg>
