<svg width="24" height="24" viewBox="0 0 24 24" fill="none" xmlns="http://www.w3.org/2000/svg">
<g stroke="currentColor" fill="none" stroke-width="1.5" stroke-linecap="round" stroke-linejoin="round">
<path d="M7.5 3V6"/>
<path d="M16.5 3V6"/>
<path d="M3 7.5C3 5.84315 4.34315 4.5 6 4.5H18C19.6569 4.5 21 5.84315 21 7.5"/>
<path d="M21 18C21 19.6569 19.6569 21 18 21H6C4.34315 21 3 19.6569 3 18"/>
<path d="M3 10V7.5"/>
<path d="M21 7.5V10"/>
<path d="M3 18V16"/>
<path d="M21 16V18"/>
<path d="M14 13H16"/>
<path d="M19 13H21"/>
<path d="M8.4 13H10.4"/>
<path d="M3 13H5"/>
</g>
</svg>
