<svg width="24" height="24" viewBox="0 0 24 24" fill="none" xmlns="http://www.w3.org/2000/svg">
<g stroke="currentColor" fill="none" stroke-width="1.5" stroke-linecap="round" stroke-linejoin="round">
<path d="M7.5 6V3"/>
<path d="M16.5 6V3"/>
<path fill-rule="evenodd" clip-rule="evenodd" d="M21 7.5V15.7574C21 16.553 20.6839 17.3161 20.1213 17.8787L17.8787 20.1213C17.3161 20.6839 16.553 21 15.7574 21H6C4.34315 21 3 19.6569 3 18V7.5C3 5.84315 4.34315 4.5 6 4.5H18C19.6569 4.5 21 5.84315 21 7.5Z"/>
<path d="M21 15.5H17.5C16.3954 15.5 15.5 16.3954 15.5 17.5V21"/>
<path d="M12 14V11"/>
<path d="M13.5 12.5H10.5"/>
</g>
</svg>
