<svg width="24" height="24" viewBox="0 0 24 24" fill="none" xmlns="http://www.w3.org/2000/svg">
    <g stroke="currentColor" fill="none" stroke-width="1.5" stroke-linecap="round" stroke-linejoin="round">
        <path
            d="M19.4749 3.52514C20.8417 4.89198 20.8417 7.10805 19.4749 8.47488C18.108 9.84171 15.892 9.84171 14.5251 8.47488C13.1583 7.10805 13.1583 4.89198 14.5251 3.52514C15.1815 2.86876 16.0717 2.5 17 2.5C17.9283 2.5 18.8185 2.86876 19.4749 3.52514V3.52514V3.52514" />
        <path d="M19.5 8.5L21 10" />
        <path d="M21 14V18C21 19.6569 19.6569 21 18 21H6C4.34315 21 3 19.6569 3 18V6C3 4.34315 4.34315 3 6 3H10" />
        <path d="M13 12.5H8" />
        <path d="M8 16H16" />
        <path d="M8 9H10" />
    </g>
</svg>