<svg width="24" height="24" viewBox="0 0 24 24" xmlns="http://www.w3.org/2000/svg">
<g stroke="currentColor" fill="none" stroke-width="1.5" stroke-linecap="round" stroke-linejoin="round">
<path d="M2.99634 15.0012H7.38016C7.75876 15.0012 8.10492 15.215 8.27454 15.5535L8.72172 16.4488C8.89122 16.788 9.23791 17.0022 9.6171 17.0021H14.3821C14.7613 17.0022 15.108 16.788 15.2775 16.4488L15.7246 15.5545C15.8941 15.2153 16.2408 15.001 16.62 15.0012H21.0038" />
<path d="M15.0013 2.99622H18.0026C19.6601 2.99622 21.0038 4.33992 21.0038 5.99747V18.0025C21.0038 19.66 19.6601 21.0037 18.0026 21.0037H5.99759C4.34004 21.0037 2.99634 19.66 2.99634 18.0025V5.99747C2.99634 4.33992 4.34004 2.99622 5.99759 2.99622H8.99884" />
<path d="M12.0002 4.31783V11.9996" />
<path fill-rule="evenodd" clip-rule="evenodd" d="M12.0002 4.31784L15.0015 7.31909L12.0002 4.31784Z" />
<path fill-rule="evenodd" clip-rule="evenodd" d="M8.99902 7.31909L12.0003 4.31784L8.99902 7.31909Z" />
</g>
</svg>
