<svg height="24" viewBox="0 0 24 24" width="24" xmlns="http://www.w3.org/2000/svg">
  <g stroke="currentColor" fill="none" stroke-linecap="round" stroke-linejoin="round" stroke-width="1.5">
    <path d="M16.5 3V6" />
    <path d="M7.5 3V6" />
    <rect x="3" y="4.5" width="18" height="16.5" rx="3" />
    <path d="M6.5 16.9999L8 17.0001" />
    <path fill-rule="evenodd" clip-rule="evenodd"
      d="M14.1336 16.7071L17.2071 13.6336C17.3947 13.4461 17.5 13.1917 17.5 12.9265C17.5 12.6613 17.3947 12.4069 17.2071 12.2194L16.2806 11.2929C15.89 10.9024 15.2569 10.9024 14.8664 11.2929L11.7929 14.3664C11.6053 14.5539 11.5 14.8083 11.5 15.0735V16.7499C11.5 16.888 11.6119 16.9999 11.75 16.9999H13.4265C13.6917 16.9999 13.9461 16.8946 14.1336 16.7071Z" />
  </g>
</svg>