<svg width="24" height="24" viewBox="0 0 24 24" fill="none" xmlns="http://www.w3.org/2000/svg">
<g stroke="currentColor" fill="none" stroke-width="1.5">
  <path d="M15.1111 7.44425V3.99609" stroke-linecap="round" stroke-linejoin="round"/>
  <path d="M18.5593 3.99609H15.1111" stroke-linecap="round" stroke-linejoin="round"/>
  <path d="M15.4024 4.68945C18.8722 6.33388 20.6951 10.2021 19.7547 13.9249C18.8142 17.6476 15.3729 20.186 11.5384 19.9852C7.70393 19.7844 4.54649 16.9005 4 13.0999" stroke-linecap="round" stroke-linejoin="round"/>
  <path d="M10.6592 3.99615C10.6592 4.02375 10.6368 4.0461 10.6092 4.04609C10.5816 4.04608 10.5592 4.02372 10.5592 3.99612C10.5592 3.96852 10.5815 3.94613 10.6091 3.94609C10.6224 3.94608 10.6352 3.95134 10.6445 3.96073C10.6539 3.97013 10.6592 3.98287 10.6592 3.99615"  stroke-linecap="round" stroke-linejoin="round"/>
  <path d="M7.10365 5.33014C7.10362 5.35774 7.08123 5.38009 7.05363 5.38008C7.02603 5.38007 7.00366 5.3577 7.00365 5.3301C7.00364 5.3025 7.02599 5.28011 7.05359 5.28008C7.06687 5.28006 7.07961 5.28533 7.08901 5.29472C7.0984 5.30411 7.10367 5.31686 7.10365 5.33014" stroke-linecap="round" stroke-linejoin="round"/>
  <path d="M4.44999 8.4405C4.44996 8.4681 4.42756 8.49044 4.39997 8.49043C4.37237 8.49041 4.35 8.46804 4.34999 8.44045C4.34998 8.41285 4.37234 8.39046 4.39993 8.39043C4.41322 8.39041 4.42596 8.39568 4.43535 8.40508C4.44474 8.41447 4.45001 8.42722 4.44999 8.4405" stroke-linecap="round" stroke-linejoin="round"/>
</g>
</svg>
