<svg width="24" height="24" viewBox="0 0 24 24" xmlns="http://www.w3.org/2000/svg">
  <g stroke="currentColor" fill="none" stroke-width="1.5" stroke-linecap="round" stroke-linejoin="round">
    <path
      d="M9.52399 11.9219V14.2478C9.52388 14.7592 9.81284 15.2268 10.2703 15.4553L10.7925 15.7165C11.5527 16.0964 12.4473 16.0964 13.2075 15.7165L13.7297 15.4553C14.1872 15.2268 14.4762 14.7592 14.476 14.2478V11.9219" />
    <path d="M17.9265 3.98926H16.0927V5.82302" />
    <path d="M12 20.56C15.9157 20.5652 19.335 17.911 20.3013 14.1164C21.2675 10.3218 19.534 6.35552 16.0927 4.4873" />
    <path d="M7.90731 18.1777V20.0115H6.07355" />
    <path
      d="M7.90728 19.5132C5.53527 18.2255 3.91062 15.8933 3.5247 13.222C3.13878 10.5507 4.03692 7.85404 5.94747 5.9476V5.9476C7.55012 4.33791 9.72852 3.43379 12 3.43555" />
    <path fill-rule="evenodd" clip-rule="evenodd"
      d="M7.91127 11.1153L10.9996 12.658C11.6314 12.9731 12.3746 12.9731 13.0064 12.658L16.0917 11.1153C16.3453 10.9889 16.5055 10.7299 16.5055 10.4466C16.5055 10.1632 16.3453 9.90422 16.0917 9.77777L13.0004 8.23513C12.3688 7.91902 11.6252 7.91902 10.9936 8.23513L7.91127 9.77777C7.65769 9.90422 7.49744 10.1632 7.49744 10.4466C7.49744 10.7299 7.65769 10.9889 7.91127 11.1153V11.1153Z" />
    <path d="M16.5019 10.4463V12.247" />
  </g>
</svg>