<svg width="24" height="24" viewBox="0 0 24 24" xmlns="http://www.w3.org/2000/svg">
<g stroke="currentColor" fill="none" stroke-width="1.5" stroke-linecap="round" stroke-linejoin="round">
<path fill-rule="evenodd" clip-rule="evenodd" d="M10 21H5C3.895 21 3 20.105 3 19V14C3 12.895 3.895 12 5 12H10C11.105 12 12 12.895 12 14V19C12 20.105 11.105 21 10 21Z" />
<path d="M13 7H17V11" />
<path d="M11.41 12.59L17 7" />
<path d="M16 21H19C20.105 21 21 20.105 21 19V5C21 3.895 20.105 3 19 3H5C3.895 3 3 3.895 3 5V8" />
</g>
</svg>
