<svg width="24" height="24" viewBox="0 0 24 24" fill="none" xmlns="http://www.w3.org/2000/svg">
    <g stroke="currentColor" fill="none" stroke-width="1.5" stroke-linecap="round" stroke-linejoin="round">
        <path fill-rule="evenodd" clip-rule="evenodd"
            d="M14.167 6.667H13V5.5C13 4.395 13.895 3.5 15 3.5H16.167V4.667C16.167 5.771 15.271 6.667 14.167 6.667V6.667Z" />
        <path d="M12.9997 13.5007C10.8427 13.5007 9.09473 11.7527 9.09473 9.5957" />
        <path d="M9.09473 9.59502C9.09473 7.89102 9.87573 6.66602 11.4377 6.66602" />
        <path d="M13 13.5007C15.157 13.5007 16.905 11.7527 16.905 9.5957" />
        <path d="M16.9045 9.59502C16.9045 7.89102 16.1235 6.66602 14.5615 6.66602" />
        <path
            d="M14.5625 6.66797C13.7815 6.66797 13.3385 6.91797 13.0005 6.91797C12.6625 6.91797 12.2195 6.66797 11.4385 6.66797" />
        <path d="M20.625 13.5H7.375C6.27 13.5 5.375 14.395 5.375 15.5V15.5C5.375 16.605 6.27 17.5 7.375 17.5H20.625" />
        <path d="M20.1201 13.5V17.5" />
        <path d="M18.625 17.5H5.375C4.27 17.5 3.375 18.395 3.375 19.5V19.5C3.375 20.605 4.27 21.5 5.375 21.5H18.625" />
        <path d="M18.1201 17.5V21.5" />
    </g>
</svg>