<svg width="24" height="24" viewBox="0 0 24 24" xmlns="http://www.w3.org/2000/svg">
<g fill="none" stroke="currentColor" stroke-width="1.5" stroke-linecap="round" stroke-linejoin="round">
<path d="M8.99878 6.43673H20.0034" />
<path d="M20.0034 12.0002H8.99878" />
<path d="M8.99878 17.5632H20.0034" />
<path d="M4.49691 5.93652C4.22065 5.93652 3.9967 6.16047 3.9967 6.43673C3.9967 6.71299 4.22065 6.93694 4.49691 6.93694C4.77317 6.93694 4.99712 6.71299 4.99712 6.43673C4.99712 6.16047 4.77317 5.93652 4.49691 5.93652" />
<path d="M4.49691 11.5C4.22065 11.5 3.9967 11.724 3.9967 12.0002C3.9967 12.2765 4.22065 12.5004 4.49691 12.5004C4.77317 12.5004 4.99712 12.2765 4.99712 12.0002C4.99712 11.724 4.77317 11.5 4.49691 11.5" />
<path d="M4.49691 17.063C4.22065 17.063 3.9967 17.2869 3.9967 17.5632C3.9967 17.8395 4.22065 18.0634 4.49691 18.0634C4.77317 18.0634 4.99712 17.8395 4.99712 17.5632C4.99712 17.2869 4.77317 17.063 4.49691 17.063" />
</g>
</svg>
