<svg width="24" height="24" viewBox="0 0 24 24" xmlns="http://www.w3.org/2000/svg">
<g fill="none" stroke="currentColor" stroke-width="1.5" stroke-linecap="round" stroke-linejoin="round">
<path d="M19.68 5.79744V12.5069" />
<path d="M20.64 18.2669H14.88" />
<path d="M18.72 16.3469L20.64 18.2669L18.72 20.1869" />
<path d="M11.04 16.3469H5.28C4.2192 16.3469 3.36 15.4877 3.36 14.4269V5.79744" />
<path fill-rule="evenodd" clip-rule="evenodd" d="M5.29056 3.86688H17.7504C18.816 3.86688 19.681 4.73088 19.681 5.79744V5.79744C19.681 6.43776 19.3632 7.03584 18.8333 7.39488L13.6906 10.8806C12.3802 11.7686 10.6598 11.7686 9.34944 10.8806L4.20768 7.39584C3.67776 7.0368 3.36 6.43776 3.36 5.7984V5.79744C3.36 4.73088 4.224 3.86688 5.29056 3.86688Z" />
</g>
</svg>
