<svg width="24" height="24" viewBox="0 0 24 24" fill="none" xmlns="http://www.w3.org/2000/svg">
<g stroke="currentColor" fill="none" stroke-width="1.5" stroke-linecap="round" stroke-linejoin="round">
<circle cx="6.99825" cy="17.6273" r="4.00167" />
<path d="M5.49756 17.6273H8.49881" />
<path d="M12.4239 21.052L15.1459 21.933C15.7899 22.142 16.4899 21.852 16.7979 21.249L18.0999 18.701C18.2319 18.442 18.4429 18.232 18.7009 18.1L21.2489 16.799C21.8509 16.491 22.1419 15.791 21.9329 15.147L21.0519 12.425C20.9629 12.149 20.9629 11.852 21.0519 11.576L21.9219 8.88799C22.1369 8.22399 21.8379 7.50199 21.2169 7.18499L18.7009 5.89999C18.4419 5.76799 18.2319 5.55699 18.0999 5.29899L16.7989 2.75099C16.4909 2.14899 15.7909 1.85799 15.1469 2.06699L12.4249 2.94799C12.1489 3.03799 11.8509 3.03799 11.5759 2.94799L8.85395 2.06699C8.20995 1.85899 7.50895 2.14899 7.20195 2.75099L5.89995 5.29899C5.76795 5.55799 5.55795 5.76799 5.29895 5.89999L2.75195 7.20099C2.14895 7.50899 1.85895 8.20999 2.06695 8.85399L2.94795 11.575C3.03695 11.851 3.03695 12.148 2.94795 12.424" />
<path d="M11.5 12.5L15 9" />
<path d="M9.249 9C9.111 9 8.999 9.112 9 9.25C9 9.388 9.112 9.5 9.25 9.5C9.388 9.5 9.5 9.388 9.5 9.25C9.5 9.112 9.388 9 9.249 9" />
<path d="M14.749 14.5C14.611 14.5 14.499 14.612 14.5 14.75C14.5 14.888 14.612 15 14.75 15C14.888 15 15 14.888 15 14.75C15 14.612 14.888 14.5 14.749 14.5" />
</g>
</svg>
