<svg width="24" height="24" viewBox="0 0 24 24" fill="none" xmlns="http://www.w3.org/2000/svg">
<g stroke="currentColor" fill="none" stroke-width="1.5" stroke-linecap="round" stroke-linejoin="round">
<path d="M12.4691 3.02278C13.8329 4.38649 13.8329 6.5975 12.4691 7.96121C11.1054 9.32492 8.89443 9.32492 7.53072 7.96121C6.16701 6.5975 6.16701 4.38649 7.53072 3.02278C8.89443 1.65907 11.1054 1.65907 12.4691 3.02278" stroke-width="1.5" stroke-linecap="round" stroke-linejoin="round"/>
<path d="M14.363 12.7962C13.064 12.2772 11.54 11.9912 10 11.9912C5.952 11.9912 2 13.9582 2 16.9832V17.9832C2 18.5352 2.448 18.9832 3 18.9832H12.413" stroke-width="1.5" stroke-linecap="round" stroke-linejoin="round"/>
<path d="M17 22C14.239 22 12 19.762 12 17C12 14.296 14.3 11.997 17.004 12C19.764 12.002 22 14.24 22 17C22 19.761 19.762 22 17 22" stroke-width="1.5" stroke-linecap="round" stroke-linejoin="round"/>
<path d="M19.222 15.8892L16.444 18.6672L14.778 17.0002" stroke-width="1.5" stroke-linecap="round" stroke-linejoin="round"/>
</g>
</svg>
