<svg width="24" height="24" viewBox="0 0 24 24" xmlns="http://www.w3.org/2000/svg">
<g stroke="currentColor" fill="none" stroke-width="1.5" stroke-linecap="round" stroke-linejoin="round">
<path d="M7.49813 2.99622V5.99747" />
<path d="M16.5019 2.99622V5.99747" />
<rect x="2.99625" y="4.49683" width="18.0075" height="16.5069" rx="3" />
<path d="M7.49811 16.0017H13.0004" />
<path d="M16.3768 16.1267C16.4459 16.1267 16.5019 16.0707 16.5019 16.0017C16.5019 15.9326 16.4459 15.8766 16.3768 15.8766C16.3078 15.8766 16.2518 15.9326 16.2518 16.0017C16.2518 16.0707 16.3078 16.1267 16.3768 16.1267" />
<path d="M16.5019 12H10.8745" />
<path d="M7.62316 11.8749C7.5541 11.8749 7.49811 11.9309 7.49811 12C7.49811 12.069 7.5541 12.125 7.62316 12.125C7.69223 12.125 7.74822 12.069 7.74822 12C7.74822 11.9309 7.69223 11.8749 7.62316 11.8749" />
</g>
</svg>
